# Created by FreeCAD <http://www.freecadweb.org>
v 40.000000 40.000000 25.000000
v 40.000000 40.000000 0.000000
v 30.000000 40.000000 17.500000
v 30.000000 40.000000 7.500000
v 10.000000 40.000000 17.500000
v 0.000000 40.000000 25.000000
v 10.000000 40.000000 7.500000
v 0.000000 40.000000 0.000000
v 40.000000 0.000000 0.000000
v 40.000000 0.000000 25.000000
v 1.800000 2.000000 0.000000
v 1.800000 38.000000 0.000000
v 0.000000 0.000000 0.000000
v 38.200001 2.000000 0.000000
v 38.200001 38.000000 0.000000
v 1.800000 38.000000 25.000000
v 0.000000 0.000000 25.000000
v 1.800000 2.000000 25.000000
v 38.200001 2.000000 25.000000
v 38.200001 38.000000 25.000000
v 30.000000 38.000000 17.500000
v 10.000000 38.000000 17.500000
v 10.000000 38.000000 15.000000
v 10.000000 38.000000 10.000000
v 10.000000 23.000000 15.000000
v 10.000000 23.000000 10.000000
v 10.000000 38.000000 7.500000
v 30.000000 38.000000 7.500000
v 30.000000 38.000000 10.000000
v 30.000000 23.000000 10.000000
v 30.000000 23.000000 15.000000
v 30.000000 38.000000 15.000000
v 12.108595 0.000000 18.642128
v 13.227184 0.000000 19.857239
v 14.530519 0.000000 20.871664
v 11.205262 0.000000 17.259474
v 15.983046 0.000000 21.657734
v 10.541827 0.000000 15.746995
v 17.545145 0.000000 22.194002
v 10.136387 0.000000 14.145946
v 19.174206 0.000000 22.465845
v 10.000000 0.000000 12.500000
v 10.136387 0.000000 10.854054
v 10.541827 0.000000 9.253005
v 11.205262 0.000000 7.740526
v 12.108595 0.000000 6.357873
v 13.227184 0.000000 5.142761
v 14.530519 0.000000 4.128335
v 15.983046 0.000000 3.342267
v 17.545145 0.000000 2.805997
v 29.458172 0.000000 15.746995
v 28.794737 0.000000 17.259474
v 27.891405 0.000000 18.642128
v 26.772816 0.000000 19.857239
v 25.469482 0.000000 20.871664
v 24.016954 0.000000 21.657734
v 22.454855 0.000000 22.194002
v 20.825794 0.000000 22.465845
v 29.863613 0.000000 14.145946
v 30.000000 0.000000 12.500000
v 22.454855 0.000000 2.805997
v 24.016954 0.000000 3.342267
v 25.469482 0.000000 4.128335
v 26.772816 0.000000 5.142761
v 27.891405 0.000000 6.357873
v 28.794737 0.000000 7.740526
v 29.458172 0.000000 9.253005
v 29.863613 0.000000 10.854054
v 20.825794 0.000000 2.534155
v 19.174206 0.000000 2.534155
v 10.858721 2.000000 8.445741
v 1.800000 2.000000 10.000000
v 10.317542 2.000000 10.000000
v 11.647501 2.000000 7.001294
v 12.662517 2.000000 5.705786
v 13.876276 2.000000 4.594306
v 15.255901 2.000000 3.696959
v 16.764027 2.000000 3.038051
v 18.359800 2.000000 2.635430
v 38.200001 2.000000 10.000000
v 29.141279 2.000000 8.445741
v 29.682459 2.000000 10.000000
v 21.640200 2.000000 2.635430
v 23.235973 2.000000 3.038051
v 24.744099 2.000000 3.696959
v 26.123724 2.000000 4.594306
v 27.337482 2.000000 5.705786
v 28.352499 2.000000 7.001294
v 20.000000 2.000000 2.500000
v 38.200001 38.000000 10.000000
v 1.800000 38.000000 10.000000
v 1.800000 2.000000 15.000000
v 1.800000 38.000000 15.000000
v 29.141279 2.000000 16.554260
v 38.200001 2.000000 15.000000
v 29.682459 2.000000 15.000000
v 28.352499 2.000000 17.998705
v 27.337482 2.000000 19.294214
v 26.123724 2.000000 20.405695
v 24.744099 2.000000 21.303041
v 23.235973 2.000000 21.961948
v 21.640200 2.000000 22.364571
v 10.858721 2.000000 16.554260
v 10.317542 2.000000 15.000000
v 18.359800 2.000000 22.364571
v 16.764027 2.000000 21.961948
v 15.255901 2.000000 21.303041
v 13.876276 2.000000 20.405695
v 12.662517 2.000000 19.294214
v 11.647501 2.000000 17.998705
v 20.000000 2.000000 22.500000
v 38.200001 38.000000 15.000000
v 2.800000 3.000000 10.000000
v 10.317542 3.000000 10.000000
v 2.800000 23.000000 10.000000
v 2.800000 23.000000 15.000000
v 10.317542 3.000000 15.000000
v 2.800000 3.000000 15.000000
v 37.200001 3.000000 15.000000
v 29.682459 3.000000 15.000000
v 37.200001 23.000000 15.000000
v 37.200001 23.000000 10.000000
v 29.682459 3.000000 10.000000
v 37.200001 3.000000 10.000000
v 30.000000 3.000000 12.500000
v 29.964550 3.000000 13.341272
v 29.858452 3.000000 14.176579
v 10.079703 3.000000 13.760043
v 10.000000 3.000000 12.500000
v 10.079703 3.000000 11.239957
v 29.858452 3.000000 10.823421
v 29.964550 3.000000 11.658728
vn 0.000000 1.000000 0.000000
vn 0.000000 1.000000 0.000000
vn 0.000000 1.000000 -0.000000
vn 0.000000 1.000000 -0.000000
vn 0.000000 1.000000 0.000000
vn 0.000000 1.000000 0.000000
vn 0.000000 1.000000 0.000000
vn 0.000000 1.000000 0.000000
vn 1.000000 0.000000 0.000000
vn 1.000000 -0.000000 0.000000
vn 0.000000 0.000000 -1.000000
vn 0.000000 0.000000 -1.000000
vn 0.000000 0.000000 -1.000000
vn 0.000000 -0.000000 -1.000000
vn 0.000000 0.000000 -1.000000
vn 0.000000 0.000000 -1.000000
vn 0.000000 0.000000 -1.000000
vn 0.000000 0.000000 -1.000000
vn 0.000000 0.000000 1.000000
vn 0.000000 0.000000 1.000000
vn 0.000000 0.000000 1.000000
vn 0.000000 0.000000 1.000000
vn 0.000000 0.000000 1.000000
vn 0.000000 0.000000 1.000000
vn 0.000000 0.000000 1.000000
vn 0.000000 0.000000 1.000000
vn -1.000000 0.000000 0.000000
vn -1.000000 -0.000000 0.000000
vn 0.000000 0.000000 -1.000000
vn 0.000000 0.000000 -1.000000
vn 1.000000 0.000000 0.000000
vn 1.000000 0.000000 -0.000000
vn 1.000000 0.000000 0.000000
vn 1.000000 0.000000 0.000000
vn 1.000000 0.000000 0.000000
vn 1.000000 0.000000 -0.000000
vn 0.000000 0.000000 1.000000
vn 0.000000 0.000000 1.000000
vn -1.000000 0.000000 0.000000
vn -1.000000 0.000000 0.000000
vn -1.000000 -0.000000 -0.000000
vn -1.000000 -0.000000 0.000000
vn -1.000000 0.000000 -0.000000
vn -1.000000 0.000000 0.000000
vn 0.000000 -1.000000 -0.000000
vn 0.000000 -1.000000 -0.000000
vn 0.000000 -1.000000 -0.000000
vn 0.000000 -1.000000 -0.000000
vn 0.000000 -1.000000 0.000000
vn 0.000000 -1.000000 -0.000000
vn 0.000000 -1.000000 0.000000
vn 0.000000 -1.000000 -0.000000
vn 0.000000 -1.000000 0.000000
vn 0.000000 -1.000000 0.000000
vn 0.000000 -1.000000 0.000000
vn 0.000000 -1.000000 0.000000
vn 0.000000 -1.000000 0.000000
vn 0.000000 -1.000000 0.000000
vn 0.000000 -1.000000 0.000000
vn 0.000000 -1.000000 0.000000
vn 0.000000 -1.000000 0.000000
vn 0.000000 -1.000000 0.000000
vn -0.000000 -1.000000 0.000000
vn -0.000000 -1.000000 -0.000000
vn -0.000000 -1.000000 -0.000000
vn -0.000000 -1.000000 -0.000000
vn -0.000000 -1.000000 -0.000000
vn -0.000000 -1.000000 -0.000000
vn -0.000000 -1.000000 -0.000000
vn -0.000000 -1.000000 -0.000000
vn 0.000000 -1.000000 -0.000000
vn -0.000000 -1.000000 0.000000
vn -0.000000 -1.000000 0.000000
vn -0.000000 -1.000000 0.000000
vn 0.000000 -1.000000 0.000000
vn 0.000000 -1.000000 0.000000
vn 0.000000 -1.000000 0.000000
vn 0.000000 -1.000000 0.000000
vn 0.000000 -1.000000 0.000000
vn 0.000000 -1.000000 0.000000
vn 0.000000 -1.000000 0.000000
vn 0.000000 -1.000000 0.000000
vn 0.000000 -1.000000 0.000000
vn 0.000000 -1.000000 0.000000
vn 0.000000 -1.000000 0.000000
vn 0.000000 -1.000000 0.000000
vn 0.000000 1.000000 0.000000
vn 0.000000 1.000000 0.000000
vn 0.000000 1.000000 0.000000
vn 0.000000 1.000000 0.000000
vn 0.000000 1.000000 0.000000
vn 0.000000 1.000000 0.000000
vn 0.000000 1.000000 0.000000
vn 0.000000 1.000000 0.000000
vn 0.000000 1.000000 0.000000
vn 0.000000 1.000000 0.000000
vn 0.000000 1.000000 0.000000
vn 0.000000 1.000000 0.000000
vn 0.000000 1.000000 0.000000
vn 0.000000 1.000000 0.000000
vn 0.000000 1.000000 0.000000
vn 0.000000 1.000000 -0.000000
vn 0.000000 1.000000 0.000000
vn 0.000000 1.000000 0.000000
vn 0.000000 1.000000 0.000000
vn -1.000000 0.000000 0.000000
vn -1.000000 0.000000 0.000000
vn 0.000000 -1.000000 0.000000
vn 0.000000 -1.000000 0.000000
vn 0.000000 -1.000000 0.000000
vn 0.000000 -1.000000 0.000000
vn 0.000000 -1.000000 0.000000
vn 0.000000 -1.000000 0.000000
vn 1.000000 0.000000 0.000000
vn 1.000000 0.000000 0.000000
vn 1.000000 0.000000 0.000000
vn 1.000000 0.000000 0.000000
vn -0.000000 1.000000 0.000000
vn 0.000000 1.000000 0.000000
vn -0.000000 1.000000 0.000000
vn -0.000000 1.000000 0.000000
vn -0.000000 1.000000 0.000000
vn -0.000000 1.000000 0.000000
vn -0.000000 1.000000 0.000000
vn -0.000000 1.000000 0.000000
vn 0.000000 1.000000 0.000000
vn 0.000000 1.000000 0.000000
vn 0.000000 1.000000 0.000000
vn 0.000000 1.000000 0.000000
vn 0.000000 1.000000 0.000000
vn 0.000000 1.000000 0.000000
vn 0.000000 1.000000 0.000000
vn 0.000000 1.000000 0.000000
vn -0.000000 1.000000 0.000000
vn -0.000000 1.000000 0.000000
vn 0.000000 1.000000 0.000000
vn -1.000000 0.000000 0.000000
vn -1.000000 0.000000 0.000000
vn -0.000000 -1.000000 0.000000
vn 0.000000 -1.000000 -0.000000
vn 0.000000 -1.000000 0.000000
vn 0.000000 -1.000000 0.000000
vn 0.000000 -1.000000 -0.000000
vn -0.000000 -1.000000 0.000000
vn 0.000000 -0.000000 -1.000000
vn 0.000000 0.000000 -1.000000
vn 0.000000 0.000000 -1.000000
vn 0.000000 0.000000 -1.000000
vn 0.000000 0.000000 -1.000000
vn 0.000000 0.000000 -1.000000
vn -0.000000 -1.000000 -0.000000
vn 0.000000 -1.000000 0.000000
vn 0.000000 0.000000 1.000000
vn 0.000000 0.000000 1.000000
vn 0.000000 -0.000000 1.000000
vn 0.000000 -0.000000 1.000000
vn 0.000000 0.000000 1.000000
vn 0.000000 0.000000 1.000000
vn 0.000000 0.000000 1.000000
vn 0.000000 0.000000 1.000000
vn 0.000000 0.000000 1.000000
vn 0.000000 0.000000 1.000000
vn 0.000000 0.000000 1.000000
vn 0.000000 -0.000000 1.000000
vn 0.000000 -1.000000 0.000000
vn 0.000000 -1.000000 0.000000
vn 0.000000 0.000000 -1.000000
vn 0.000000 -0.000000 -1.000000
vn 0.000000 0.000000 -1.000000
vn 0.000000 0.000000 -1.000000
vn 0.000000 0.000000 -1.000000
vn 0.000000 -0.000000 -1.000000
vn -0.999113 -0.000000 -0.042101
vn -0.977913 0.000000 -0.209013
vn -0.992030 -0.000420 -0.126005
vn -0.996520 0.011380 -0.082574
vn -0.978023 0.000446 -0.208495
vn -0.969260 0.017021 -0.245450
vn -0.944255 -0.016907 -0.328781
vn -0.915640 0.017034 -0.401637
vn -0.877540 -0.016919 -0.479206
vn -0.837045 0.017044 -0.546868
vn -0.787056 -0.016930 -0.616649
vn -0.735617 0.017054 -0.677183
vn -0.675254 -0.016938 -0.737391
vn -0.614123 0.017062 -0.789026
vn -0.545162 -0.016944 -0.838159
vn -0.475879 0.017068 -0.879345
vn -0.400303 -0.016950 -0.916226
vn -0.324652 0.017071 -0.945680
vn -0.244604 -0.016953 -0.969475
vn -0.164571 0.017074 -0.986217
vn -0.082277 -0.016955 -0.996465
vn 0.000000 0.017075 -0.999854
vn 0.082277 -0.016955 -0.996465
vn 0.164571 0.017074 -0.986217
vn 0.244604 -0.016953 -0.969475
vn 0.324652 0.017071 -0.945680
vn 0.400303 -0.016950 -0.916226
vn 0.475879 0.017068 -0.879345
vn 0.545162 -0.016944 -0.838159
vn 0.614123 0.017062 -0.789026
vn 0.675254 -0.016938 -0.737391
vn 0.735617 0.017054 -0.677183
vn 0.787056 -0.016930 -0.616649
vn 0.877540 -0.016919 -0.479206
vn 0.837045 0.017044 -0.546869
vn 0.982097 0.000000 -0.188378
vn 0.944255 -0.016908 -0.328781
vn 0.915640 0.017034 -0.401637
vn 0.981121 -0.006326 -0.193293
vn 0.969260 0.017020 -0.245450
vn 0.998005 0.000000 -0.063128
vn 0.998005 0.000000 0.063128
vn 0.996551 0.008207 -0.082577
vn 0.982097 0.000000 0.188378
vn 0.996551 0.008207 0.082577
vn 0.981121 -0.006326 0.193293
vn 0.944255 -0.016908 0.328781
vn 0.969260 0.017020 0.245450
vn 0.877540 -0.016919 0.479205
vn 0.915640 0.017033 0.401637
vn 0.787056 -0.016929 0.616649
vn 0.837045 0.017045 0.546869
vn 0.675254 -0.016938 0.737391
vn 0.735617 0.017054 0.677183
vn 0.545162 -0.016945 0.838159
vn 0.614123 0.017061 0.789026
vn 0.400304 -0.016950 0.916226
vn 0.475878 0.017067 0.879346
vn 0.324652 0.017072 0.945679
vn 0.244603 -0.016953 0.969475
vn 0.164571 0.017074 0.986218
vn 0.082277 -0.016955 0.996465
vn -0.000000 0.017075 0.999854
vn -0.082277 -0.016955 0.996465
vn -0.164571 0.017074 0.986218
vn -0.244603 -0.016953 0.969475
vn -0.324652 0.017072 0.945679
vn -0.400304 -0.016950 0.916226
vn -0.475878 0.017067 0.879346
vn -0.545162 -0.016945 0.838159
vn -0.614124 0.017061 0.789025
vn -0.675254 -0.016938 0.737391
vn -0.735617 0.017054 0.677183
vn -0.787056 -0.016929 0.616650
vn -0.837045 0.017045 0.546868
vn -0.877540 -0.016919 0.479205
vn -0.977913 0.000000 0.209013
vn -0.915640 0.017034 0.401637
vn -0.944255 -0.016907 0.328781
vn -0.978023 0.000446 0.208495
vn -0.969260 0.017021 0.245450
vn -0.992030 -0.000420 0.126005
vn -0.996520 0.011380 0.082574
vn -0.999113 0.000000 0.042101
vn 1.000000 0.000000 0.000000
vn 1.000000 0.000000 0.000000
vn 0.000000 1.000000 0.000000
vn 0.000000 1.000000 0.000000
vn 0.000000 1.000000 0.000000
vn 0.000000 1.000000 0.000000
vn -0.000000 1.000000 0.000000
vn -1.000000 0.000000 0.000000
vn -1.000000 0.000000 0.000000
vn 0.000000 1.000000 0.000000
vn 0.000000 1.000000 0.000000
vn 0.000000 1.000000 0.000000
vn 0.000000 1.000000 0.000000
vn 0.000000 1.000000 0.000000
vn 0.000000 1.000000 0.000000
vn 0.000000 1.000000 -0.000000
f 1//1 2//1 3//1
f 2//2 4//2 3//2
f 5//3 6//3 3//3
f 3//4 6//4 1//4
f 5//5 7//5 6//5
f 7//6 8//6 6//6
f 2//7 8//7 4//7
f 4//8 8//8 7//8
f 9//9 2//9 10//9
f 10//10 2//10 1//10
f 11//11 8//11 12//11
f 13//12 8//12 11//12
f 13//13 14//13 9//13
f 11//14 14//14 13//14
f 14//15 15//15 9//15
f 15//16 2//16 9//16
f 8//17 2//17 12//17
f 12//18 2//18 15//18
f 16//19 17//19 18//19
f 10//20 18//20 17//20
f 6//21 17//21 16//21
f 19//22 18//22 10//22
f 20//23 19//23 10//23
f 1//24 20//24 10//24
f 1//25 6//25 16//25
f 1//26 16//26 20//26
f 8//27 13//27 6//27
f 6//28 13//28 17//28
f 5//29 3//29 21//29
f 5//30 21//30 22//30
f 23//31 5//31 22//31
f 24//32 23//32 25//32
f 24//33 25//33 26//33
f 24//34 5//34 23//34
f 7//35 24//35 27//35
f 7//36 5//36 24//36
f 4//37 7//37 27//37
f 4//38 27//38 28//38
f 29//39 4//39 28//39
f 29//40 30//40 31//40
f 32//41 29//41 31//41
f 3//42 32//42 21//42
f 3//43 4//43 29//43
f 3//44 29//44 32//44
f 17//45 33//45 34//45
f 34//46 35//46 17//46
f 17//47 36//47 33//47
f 35//48 37//48 17//48
f 17//49 38//49 36//49
f 37//50 39//50 17//50
f 17//51 40//51 38//51
f 39//52 41//52 17//52
f 17//53 42//53 40//53
f 42//54 13//54 43//54
f 17//55 13//55 42//55
f 13//56 44//56 43//56
f 13//57 45//57 44//57
f 13//58 46//58 45//58
f 13//59 47//59 46//59
f 13//60 48//60 47//60
f 13//61 49//61 48//61
f 13//62 50//62 49//62
f 51//63 10//63 52//63
f 52//64 10//64 53//64
f 53//65 10//65 54//65
f 54//66 10//66 55//66
f 55//67 10//67 56//67
f 56//68 10//68 57//68
f 57//69 10//69 58//69
f 58//70 10//70 41//70
f 41//71 10//71 17//71
f 51//72 59//72 10//72
f 59//73 60//73 10//73
f 60//74 9//74 10//74
f 61//75 9//75 62//75
f 62//76 9//76 63//76
f 63//77 9//77 64//77
f 64//78 9//78 65//78
f 65//79 9//79 66//79
f 66//80 9//80 67//80
f 67//81 9//81 68//81
f 68//82 9//82 60//82
f 13//83 9//83 69//83
f 13//84 69//84 70//84
f 13//85 70//85 50//85
f 69//86 9//86 61//86
f 71//87 11//87 72//87
f 71//88 72//88 73//88
f 74//89 11//89 71//89
f 75//90 11//90 74//90
f 76//91 11//91 75//91
f 77//92 11//92 76//92
f 78//93 11//93 77//93
f 79//94 11//94 78//94
f 80//95 81//95 82//95
f 14//96 83//96 84//96
f 14//97 84//97 85//97
f 14//98 85//98 86//98
f 14//99 86//99 87//99
f 14//100 87//100 88//100
f 14//101 88//101 81//101
f 14//102 81//102 80//102
f 14//103 11//103 89//103
f 89//104 11//104 79//104
f 14//105 89//105 83//105
f 15//106 14//106 80//106
f 15//107 80//107 90//107
f 28//108 15//108 90//108
f 28//109 90//109 29//109
f 27//110 15//110 28//110
f 91//111 27//111 24//111
f 12//112 27//112 91//112
f 12//113 15//113 27//113
f 11//114 12//114 91//114
f 11//115 91//115 72//115
f 16//116 18//116 92//116
f 16//117 92//117 93//117
f 94//118 19//118 95//118
f 94//119 95//119 96//119
f 97//120 19//120 94//120
f 98//121 19//121 97//121
f 99//122 19//122 98//122
f 100//123 19//123 99//123
f 101//124 19//124 100//124
f 102//125 19//125 101//125
f 92//126 103//126 104//126
f 18//127 105//127 106//127
f 18//128 106//128 107//128
f 18//129 107//129 108//129
f 18//130 108//130 109//130
f 18//131 109//131 110//131
f 18//132 110//132 103//132
f 18//133 103//133 92//133
f 18//134 19//134 111//134
f 111//135 19//135 102//135
f 18//136 111//136 105//136
f 19//137 20//137 112//137
f 19//138 112//138 95//138
f 22//139 16//139 93//139
f 22//140 93//140 23//140
f 21//141 16//141 22//141
f 112//142 21//142 32//142
f 20//143 21//143 112//143
f 20//144 16//144 21//144
f 113//145 73//145 72//145
f 113//146 114//146 73//146
f 72//147 115//147 113//147
f 115//148 24//148 26//148
f 91//149 24//149 115//149
f 72//150 91//150 115//150
f 25//151 116//151 26//151
f 26//152 116//152 115//152
f 117//153 118//153 104//153
f 118//154 92//154 104//154
f 118//155 116//155 92//155
f 25//156 23//156 116//156
f 23//157 93//157 116//157
f 93//158 92//158 116//158
f 119//159 96//159 95//159
f 119//160 120//160 96//160
f 95//161 121//161 119//161
f 121//162 32//162 31//162
f 112//163 32//163 121//163
f 95//164 112//164 121//164
f 30//165 122//165 121//165
f 30//166 121//166 31//166
f 123//167 124//167 82//167
f 124//168 80//168 82//168
f 124//169 122//169 80//169
f 30//170 29//170 122//170
f 29//171 90//171 122//171
f 90//172 80//172 122//172
f 125//173 60//173 126//173
f 127//174 96//174 120//174
f 126//175 59//175 127//175
f 60//176 59//176 126//176
f 127//177 59//177 96//177
f 59//178 51//178 96//178
f 96//179 51//179 94//179
f 51//180 52//180 94//180
f 94//181 52//181 97//181
f 52//182 53//182 97//182
f 97//183 53//183 98//183
f 53//184 54//184 98//184
f 98//185 54//185 99//185
f 54//186 55//186 99//186
f 99//187 55//187 100//187
f 55//188 56//188 100//188
f 100//189 56//189 101//189
f 56//190 57//190 101//190
f 101//191 57//191 102//191
f 57//192 58//192 102//192
f 102//193 58//193 111//193
f 58//194 41//194 111//194
f 111//195 41//195 105//195
f 41//196 39//196 105//196
f 105//197 39//197 106//197
f 39//198 37//198 106//198
f 106//199 37//199 107//199
f 37//200 35//200 107//200
f 107//201 35//201 108//201
f 35//202 34//202 108//202
f 108//203 34//203 109//203
f 34//204 33//204 109//204
f 109//205 33//205 110//205
f 110//206 36//206 103//206
f 33//207 36//207 110//207
f 104//208 128//208 117//208
f 103//209 38//209 104//209
f 36//210 38//210 103//210
f 104//211 40//211 128//211
f 38//212 40//212 104//212
f 128//213 42//213 129//213
f 129//214 42//214 130//214
f 40//215 42//215 128//215
f 130//216 73//216 114//216
f 42//217 43//217 130//217
f 130//218 43//218 73//218
f 73//219 44//219 71//219
f 43//220 44//220 73//220
f 71//221 45//221 74//221
f 44//222 45//222 71//222
f 74//223 46//223 75//223
f 45//224 46//224 74//224
f 75//225 47//225 76//225
f 46//226 47//226 75//226
f 76//227 48//227 77//227
f 47//228 48//228 76//228
f 77//229 49//229 78//229
f 48//230 49//230 77//230
f 49//231 50//231 78//231
f 78//232 50//232 79//232
f 50//233 70//233 79//233
f 79//234 70//234 89//234
f 70//235 69//235 89//235
f 89//236 69//236 83//236
f 69//237 61//237 83//237
f 83//238 61//238 84//238
f 61//239 62//239 84//239
f 84//240 62//240 85//240
f 62//241 63//241 85//241
f 85//242 63//242 86//242
f 63//243 64//243 86//243
f 86//244 64//244 87//244
f 64//245 65//245 87//245
f 87//246 65//246 88//246
f 65//247 66//247 88//247
f 88//248 66//248 81//248
f 82//249 131//249 123//249
f 66//250 67//250 81//250
f 81//251 67//251 82//251
f 82//252 68//252 131//252
f 67//253 68//253 82//253
f 131//254 68//254 132//254
f 68//255 60//255 132//255
f 132//256 60//256 125//256
f 116//257 118//257 115//257
f 115//258 118//258 113//258
f 113//259 130//259 114//259
f 118//260 129//260 113//260
f 113//261 129//261 130//261
f 118//262 128//262 129//262
f 118//263 117//263 128//263
f 122//264 124//264 119//264
f 122//265 119//265 121//265
f 119//266 125//266 126//266
f 119//267 126//267 127//267
f 119//268 127//268 120//268
f 124//269 123//269 131//269
f 124//270 131//270 132//270
f 124//271 132//271 125//271
f 124//272 125//272 119//272
